<svg width="128" height="167" viewBox="0 0 128 167" fill="none" xmlns="http://www.w3.org/2000/svg">
<line x1="12.5503" y1="132.788" x2="15.7503" y2="68.7876" stroke="white" stroke-opacity="0.8" stroke-width="0.5"/>
<line x1="16" y1="70.15" x2="52.8" y2="70.15" stroke="white" stroke-opacity="0.8" stroke-width="0.5"/>
<line x1="78.1528" y1="35.1629" x2="82.9528" y2="3.16293" stroke="white" stroke-opacity="0.8" stroke-width="0.5"/>
<line x1="78.3026" y1="34.9698" x2="119.903" y2="17.3698" stroke="white" stroke-opacity="0.8" stroke-width="0.5"/>
<line x1="15.8079" y1="68.64" x2="55.8079" y2="20.64" stroke="white" stroke-opacity="0.8" stroke-width="0.5"/>
<line x1="55.9424" y1="20.5568" x2="116.742" y2="6.15678" stroke="white" stroke-opacity="0.8" stroke-width="0.5"/>
<line x1="14.1791" y1="143.883" x2="42.9791" y2="89.483" stroke="white" stroke-opacity="0.8" stroke-width="0.5"/>
<line x1="16.0371" y1="143.753" x2="80.0371" y2="153.353" stroke="white" stroke-opacity="0.8" stroke-width="0.5"/>
<line x1="79.7644" y1="153.516" x2="105.364" y2="81.5162" stroke="white" stroke-opacity="0.8" stroke-width="0.5"/>
<line x1="43.4177" y1="91.0772" x2="78.6177" y2="153.477" stroke="white" stroke-opacity="0.8" stroke-width="0.5"/>
<line x1="68.5911" y1="137.463" x2="105.391" y2="81.4627" stroke="white" stroke-opacity="0.8" stroke-width="0.5"/>
<line x1="52.8573" y1="68.5567" x2="107.257" y2="81.3567" stroke="white" stroke-opacity="0.8" stroke-width="0.5"/>
<line x1="52.8444" y1="69.8043" x2="100.644" y2="31.8043" stroke="white" stroke-opacity="0.8" stroke-width="0.5"/>
<line x1="100.579" y1="31.883" x2="114.979" y2="4.68303" stroke="white" stroke-opacity="0.8" stroke-width="0.5"/>
<line x1="99.135" y1="32.2414" x2="57.535" y2="21.0414" stroke="white" stroke-opacity="0.8" stroke-width="0.5"/>
<line x1="100.924" y1="31.7829" x2="123.324" y2="44.5829" stroke="white" stroke-opacity="0.8" stroke-width="0.5"/>
<line x1="52.7505" y1="68.9845" x2="55.7505" y2="20.7845" stroke="white" stroke-opacity="0.8" stroke-width="0.5"/>
<line x1="107.11" y1="79.7667" x2="127.91" y2="71.7667" stroke="white" stroke-opacity="0.8" stroke-width="0.5"/>
<line x1="2.8293" y1="100.65" x2="26.8293" y2="41.4498" stroke="white" stroke-opacity="0.9" stroke-width="0.8"/>
<line x1="26.9827" y1="39.6642" x2="54.1827" y2="22.0642" stroke="white" stroke-opacity="0.9" stroke-width="0.8"/>
<line x1="55.7972" y1="18.8552" x2="82.9972" y2="2.85524" stroke="white" stroke-opacity="0.9" stroke-width="0.8"/>
<line x1="81.619" y1="2.80046" x2="115.219" y2="4.40046" stroke="white" stroke-opacity="0.9" stroke-width="0.8"/>
<line x1="4.69903" y1="100.413" x2="41.499" y2="90.813" stroke="white" stroke-opacity="0.9" stroke-width="0.8"/>
<line x1="3.5872" y1="100.7" x2="14.7872" y2="143.9" stroke="white" stroke-opacity="0.9" stroke-width="0.8"/>
<line x1="14.7767" y1="143.865" x2="22.7767" y2="166.265" stroke="white" stroke-opacity="0.9" stroke-width="0.8"/>
<line x1="41.2704" y1="87.7734" x2="76.4704" y2="36.5734" stroke="white" stroke-opacity="0.9" stroke-width="0.8"/>
<line x1="76.8373" y1="35.5983" x2="25.6373" y2="40.3983" stroke="white" stroke-opacity="0.9" stroke-width="0.8"/>
<line x1="25.9831" y1="39.8851" x2="40.3831" y2="87.8851" stroke="white" stroke-opacity="0.9" stroke-width="0.8"/>
<line x1="41.5491" y1="89.2032" x2="103.949" y2="81.2032" stroke="white" stroke-opacity="0.9" stroke-width="0.8"/>
<line x1="103.655" y1="81.8023" x2="76.4549" y2="35.4023" stroke="white" stroke-opacity="0.9" stroke-width="0.8"/>
<line x1="14.2916" y1="108.696" x2="51.0553" y2="70.2615" stroke="white" stroke-opacity="0.2" stroke-width="0.3"/>
<line x1="70.4" y1="137.45" x2="120" y2="137.45" stroke="white" stroke-opacity="0.2" stroke-width="0.3"/>
<line x1="24.0847" y1="49.4762" x2="54.4847" y2="70.2762" stroke="white" stroke-opacity="0.2" stroke-width="0.3"/>
<line x1="102.388" y1="33.4505" x2="121.588" y2="31.8505" stroke="white" stroke-opacity="0.2" stroke-width="0.3"/>
<line x1="100.945" y1="31.9602" x2="118.545" y2="95.9602" stroke="white" stroke-opacity="0.2" stroke-width="0.3"/>
<line x1="79.9526" y1="153.458" x2="123.153" y2="139.058" stroke="white" stroke-opacity="0.2" stroke-width="0.3"/>
<line x1="70.2549" y1="136.038" x2="52.6549" y2="68.838" stroke="white" stroke-opacity="0.2" stroke-width="0.3"/>
<line x1="12.9269" y1="111.92" x2="40.1269" y2="155.12" stroke="white" stroke-opacity="0.2" stroke-width="0.3"/>
<line x1="14.4846" y1="110.276" x2="80.0846" y2="155.076" stroke="white" stroke-opacity="0.2" stroke-width="0.3"/>
<line x1="87.8533" y1="99.2314" x2="83.0533" y2="76.8314" stroke="white" stroke-opacity="0.2" stroke-width="0.3"/>
<line x1="83.1076" y1="76.9181" x2="46.3076" y2="48.1181" stroke="white" stroke-opacity="0.2" stroke-width="0.3"/>
<line x1="46.3423" y1="48.1385" x2="27.1423" y2="40.1385" stroke="white" stroke-opacity="0.2" stroke-width="0.3"/>
<line x1="70.2658" y1="134.333" x2="87.8658" y2="99.1329" stroke="white" stroke-opacity="0.2" stroke-width="0.3"/>
<line x1="17.7221" y1="83.1128" x2="25.7221" y2="94.3128" stroke="white" stroke-opacity="0.2" stroke-width="0.3"/>
<line x1="17.4536" y1="83.1675" x2="27.0536" y2="39.9675" stroke="white" stroke-opacity="0.2" stroke-width="0.3"/>
<line x1="64.1168" y1="33.5058" x2="104.117" y2="83.1058" stroke="white" stroke-opacity="0.2" stroke-width="0.3"/>
<line x1="63.872" y1="33.5218" x2="81.472" y2="4.72176" stroke="white" stroke-opacity="0.2" stroke-width="0.3"/>
<line x1="62.4203" y1="33.7486" x2="27.2203" y2="38.5486" stroke="white" stroke-opacity="0.2" stroke-width="0.3"/>
<line x1="46.3732" y1="49.4524" x2="63.9732" y2="46.2524" stroke="white" stroke-opacity="0.2" stroke-width="0.3"/>
<line x1="63.9012" y1="46.2871" x2="76.7012" y2="35.0871" stroke="white" stroke-opacity="0.2" stroke-width="0.3"/>
<line x1="39.7764" y1="125.888" x2="50.7764" y2="103.888" stroke="white" stroke-opacity="0.4" stroke-width="0.5"/>
<line x1="49.9731" y1="103.751" x2="86.9731" y2="99.7514" stroke="white" stroke-opacity="0.4" stroke-width="0.5"/>
<line x1="40.0841" y1="126.765" x2="68.0841" y2="136.765" stroke="white" stroke-opacity="0.4" stroke-width="0.5"/>
<circle cx="3.2" cy="100.8" r="3.2" fill="white" fill-opacity="0.9"/>
<circle cx="41.6" cy="89.6" r="3.2" fill="white" fill-opacity="0.9"/>
<circle cx="52.2" cy="69.2" r="3.2" fill="white" fill-opacity="0.9"/>
<circle cx="27.2" cy="40" r="3.2" fill="white" fill-opacity="0.9"/>
<circle cx="76.8" cy="35.2" r="3.2" fill="white" fill-opacity="0.9"/>
<circle cx="100.8" cy="32" r="3.2" fill="white" fill-opacity="0.9"/>
<circle cx="14.4" cy="144" r="3.2" fill="white" fill-opacity="0.9"/>
<circle cx="80" cy="153.6" r="3.2" fill="white" fill-opacity="0.9"/>
<circle cx="105.6" cy="81.6" r="3.2" fill="white" fill-opacity="0.9"/>
<circle cx="56" cy="20.8" r="3.2" fill="white" fill-opacity="0.9"/>
<circle cx="81.6" cy="3.2" r="3.2" fill="white" fill-opacity="0.9"/>
<circle cx="47.6" cy="48.6" r="1.6" fill="white" fill-opacity="0.6"/>
<circle cx="64" cy="46.4" r="1.6" fill="white" fill-opacity="0.6"/>
<circle cx="53.6" cy="53.6" r="1.6" fill="white" fill-opacity="0.6"/>
<circle cx="22.6" cy="60.6" r="1.6" fill="white" fill-opacity="0.6"/>
<circle cx="77.6" cy="50.6" r="1.6" fill="white" fill-opacity="0.6"/>
<circle cx="64" cy="33.6" r="1.6" fill="white" fill-opacity="0.6"/>
<circle cx="110.4" cy="57.6" r="1.6" fill="white" fill-opacity="0.6"/>
<circle cx="83.2" cy="76.8" r="1.6" fill="white" fill-opacity="0.6"/>
<circle cx="88" cy="99.2" r="1.6" fill="white" fill-opacity="0.6"/>
<circle cx="39.6" cy="126.6" r="1.6" fill="white" fill-opacity="0.6"/>
<circle cx="50.6" cy="103.6" r="1.6" fill="white" fill-opacity="0.6"/>
<circle cx="90.6" cy="29.6" r="1.6" fill="white" fill-opacity="0.6"/>
<circle cx="116.8" cy="22.4" r="1.6" fill="white" fill-opacity="0.6"/>
<circle cx="35.6" cy="70.6" r="1.6" fill="white" fill-opacity="0.6"/>
<circle cx="17.6" cy="83.2" r="1.6" fill="white" fill-opacity="0.6"/>
<circle cx="26.6" cy="94.6" r="1.6" fill="white" fill-opacity="0.6"/>
<circle cx="22.6" cy="127.6" r="1.6" fill="white" fill-opacity="0.3"/>
<circle cx="12.8" cy="132.8" r="1.6" fill="white" fill-opacity="0.6"/>
<circle cx="34.6" cy="146.6" r="1.6" fill="white" fill-opacity="0.3"/>
<circle cx="12.8" cy="110.4" r="3.2" fill="white" fill-opacity="0.8"/>
<circle cx="68.8" cy="136" r="3.2" fill="white" fill-opacity="0.9"/>
<circle cx="24" cy="49.6" r="1.6" fill="white" fill-opacity="0.6"/>
<circle cx="81.6" cy="14.6" r="1.6" fill="white" fill-opacity="0.9"/>
</svg>
